<svg width="10" height="24" viewBox="0 0 10 24" fill="none" xmlns="http://www.w3.org/2000/svg">
<path d="M7.66597 0C7.04694 0 6.45327 0.236988 6.01555 0.65883C5.57784 1.08067 5.33193 1.65281 5.33193 2.24939C5.33193 2.84596 5.57784 3.4181 6.01555 3.83994C6.45327 4.26178 7.04694 4.49877 7.66597 4.49877C8.28499 4.49877 8.87866 4.26178 9.31638 3.83994C9.75409 3.4181 10 2.84596 10 2.24939C10 1.65281 9.75409 1.08067 9.31638 0.65883C8.87866 0.236988 8.28499 0 7.66597 0ZM7.1058 7.15305C5.25413 7.30301 0.197055 11.1869 0.197055 11.1869C-0.11415 11.4119 -0.0207877 11.3969 0.228176 11.8168C0.47714 12.2217 0.446019 12.2517 0.741663 12.0567C1.05287 11.8618 1.56636 11.5468 2.42217 11.037C5.72094 8.99754 2.95122 13.7063 1.53524 21.6391C0.975067 25.568 4.64728 23.5436 5.59646 22.9437C6.53007 22.3589 9.03527 20.6943 9.28423 20.5294C9.62655 20.3045 9.37759 20.1245 9.11307 19.7496C8.92634 19.4947 8.73962 19.6746 8.73962 19.6746C7.72821 20.3195 5.87654 21.6691 5.62757 20.8143C5.33193 19.9595 7.23028 14.0961 8.27281 10.0623C8.44398 9.10251 8.91078 7.00309 7.1058 7.15305V7.15305Z" fill="#888888"/>
</svg>
