<svg width="24" height="24" viewBox="0 0 24 24" fill="none" xmlns="http://www.w3.org/2000/svg">
<path d="M20.0187 18H17.9822L11.9897 24V18H3.93722C3.06332 18 2.18941 17.5547 1.3155 16.6641C0.441592 15.7734 0.00463867 14.875 0.00463867 13.9688V4.03125C0.00463867 3.125 0.441592 2.22656 1.3155 1.33594C2.18941 0.445312 3.06332 0 3.93722 0H20.0187C20.9082 0 21.7899 0.445312 22.6638 1.33594C23.5377 2.22656 23.9747 3.125 23.9747 4.03125V13.9688C23.9747 14.875 23.5377 15.7734 22.6638 16.6641C21.7899 17.5547 20.9082 18 20.0187 18ZM8.9934 11.25C8.9934 11.0469 8.91928 10.8711 8.77102 10.7227C8.62277 10.5742 8.44721 10.5 8.24434 10.5H6.74621C6.54334 10.5 6.36778 10.5742 6.21953 10.7227C6.07127 10.8711 5.99715 11.0469 5.99715 11.25V12.75C5.99715 12.9531 6.07127 13.1289 6.21953 13.2773C6.36778 13.4258 6.54334 13.5 6.74621 13.5H8.24434C8.44721 13.5 8.62277 13.4258 8.77102 13.2773C8.91928 13.1289 8.9934 12.9531 8.9934 12.75V11.25ZM13.4878 8.25C13.4878 8.04687 13.4137 7.87109 13.2654 7.72266C13.1172 7.57422 12.9416 7.5 12.7387 7.5H11.2406C11.0377 7.5 10.8622 7.57422 10.7139 7.72266C10.5657 7.87109 10.4915 8.04687 10.4915 8.25V12.75C10.4915 12.9531 10.5657 13.1289 10.7139 13.2773C10.8622 13.4258 11.0377 13.5 11.2406 13.5H12.7387C12.9416 13.5 13.1172 13.4258 13.2654 13.2773C13.4137 13.1289 13.4878 12.9531 13.4878 12.75V8.25ZM17.9822 5.25C17.9822 5.04687 17.908 4.87109 17.7598 4.72266C17.6115 4.57422 17.436 4.5 17.2331 4.5H15.735C15.5321 4.5 15.3565 4.57422 15.2083 4.72266C15.06 4.87109 14.9859 5.04687 14.9859 5.25V12.75C14.9859 12.9531 15.06 13.1289 15.2083 13.2773C15.3565 13.4258 15.5321 13.5 15.735 13.5H17.2331C17.436 13.5 17.6115 13.4258 17.7598 13.2773C17.908 13.1289 17.9822 12.9531 17.9822 12.75V5.25Z" fill="black"/>
</svg>
